<svg width="32" height="32" viewBox="0 0 32 32" fill="none" xmlns="http://www.w3.org/2000/svg">
<path d="M29.4875 11.7501L16.9875 4.66258C16.6869 4.49046 16.3464 4.3999 16 4.3999C15.6536 4.3999 15.3132 4.49046 15.0125 4.66258L2.5125 11.7501C2.35683 11.837 2.22723 11.964 2.13712 12.1178C2.04701 12.2717 1.99967 12.4468 2 12.6251V20.6251C1.99967 20.8034 2.04701 20.9785 2.13712 21.1324C2.22723 21.2862 2.35683 21.4132 2.5125 21.5001L15.0125 28.5876C15.3132 28.7597 15.6536 28.8503 16 28.8503C16.3464 28.8503 16.6869 28.7597 16.9875 28.5876L29.4875 21.5001C29.6432 21.4132 29.7728 21.2862 29.8629 21.1324C29.953 20.9785 30.0003 20.8034 30 20.6251V12.6251C30.0003 12.4468 29.953 12.2717 29.8629 12.1178C29.7728 11.964 29.6432 11.837 29.4875 11.7501ZM28 18.9126L23.975 16.6251L28 14.3376V18.9126ZM21.95 15.4751L17 12.6626V6.96258L26.975 12.6251L21.95 15.4751ZM16 18.8501L12.075 16.6251L16 14.4001L19.925 16.6251L16 18.8501ZM15 6.96258V12.6626L10.05 15.4751L5.025 12.6251L15 6.96258ZM4 14.3376L8.025 16.6251L4 18.9126V14.3376ZM10.05 17.7751L15 20.5876V26.2876L5.025 20.6251L10.05 17.7751ZM17 26.2876V20.5876L21.95 17.7751L26.975 20.6251L17 26.2876Z" fill="#E3E6E8"/>
</svg>
