<svg width="39" height="29" viewBox="0 0 39 29" fill="none" xmlns="http://www.w3.org/2000/svg">
<g clip-path="url(#clip0_152_7)">
<path d="M8.83846 6.19365C3.52276 19.5687 0.512095 27.1713 0.300408 27.6406C0.182804 27.9222 0.159283 28.2037 0.253366 28.2507C0.347449 28.3211 2.37024 27.4998 4.74584 26.4204L9.07367 24.4963L11.8726 17.4803C13.4015 13.632 14.7187 10.2296 14.7892 9.92457C14.9068 9.54913 14.3894 8.07084 13.0957 5.04387C12.0843 2.67391 11.1905 0.726322 11.12 0.726322C11.0494 0.749787 10.038 3.19014 8.83846 6.19365Z" fill="#DE3C3F"/>
<path d="M25.3742 5.0674C24.1041 8.04744 23.5866 9.5492 23.6807 9.92464C23.7513 10.2297 25.0684 13.6321 26.5973 17.4803L29.3963 24.4964L33.7241 26.4205C36.0997 27.4999 38.1225 28.3211 38.2166 28.2742C38.3812 28.1569 38.3577 28.0865 32.0541 12.2477C29.5374 5.91213 27.4205 0.726387 27.35 0.726387C27.2794 0.726387 26.3856 2.67397 25.3742 5.0674Z" fill="#DE3C3F"/>
<path d="M17.1407 16.6825C16.1293 19.2871 15.3531 21.4694 15.4472 21.5398C15.5177 21.6102 16.3175 21.352 17.2348 20.9297C18.1521 20.5308 19.0223 20.2023 19.187 20.2023C19.3281 20.2023 20.2454 20.5308 21.1627 20.9531C22.1036 21.352 22.9268 21.6336 22.9974 21.5867C23.162 21.4224 19.4692 12.1538 19.2105 12.0599C19.0929 12.013 18.1756 14.1014 17.1407 16.6825Z" fill="#DE3C3F"/>
</g>
<defs>
<clipPath id="clip0_152_7">
<rect width="38.0621" height="27.5497" fill="white" transform="translate(0.195312 0.726318)"/>
</clipPath>
</defs>
</svg>
