<svg width="32" height="32" viewBox="0 0 32 32" fill="none" xmlns="http://www.w3.org/2000/svg">
<path d="M5.33329 26.6666C4.59996 26.6666 3.9724 26.4057 3.45063 25.8839C2.92796 25.3613 2.66663 24.7333 2.66663 23.9999V7.99992C2.66663 7.26659 2.92796 6.63903 3.45063 6.11725C3.9724 5.59459 4.59996 5.33325 5.33329 5.33325H26.6666C27.4 5.33325 28.028 5.59459 28.5506 6.11725C29.0724 6.63903 29.3333 7.26659 29.3333 7.99992V23.9999C29.3333 24.7333 29.0724 25.3613 28.5506 25.8839C28.028 26.4057 27.4 26.6666 26.6666 26.6666H5.33329ZM16 17.0999C16.1111 17.0999 16.2275 17.083 16.3493 17.0493C16.472 17.0164 16.5888 16.9666 16.7 16.8999L26.1333 10.9999C26.3111 10.8888 26.4444 10.7501 26.5333 10.5839C26.6222 10.4168 26.6666 10.2333 26.6666 10.0333C26.6666 9.58881 26.4777 9.25547 26.1 9.03325C25.7222 8.81103 25.3333 8.82214 24.9333 9.06659L16 14.6666L7.06663 9.06659C6.66663 8.82214 6.27774 8.81636 5.89996 9.04925C5.52218 9.28303 5.33329 9.61103 5.33329 10.0333C5.33329 10.2555 5.37774 10.4497 5.46663 10.6159C5.55551 10.783 5.68885 10.911 5.86663 10.9999L15.3 16.8999C15.4111 16.9666 15.528 17.0164 15.6506 17.0493C15.7724 17.083 15.8888 17.0999 16 17.0999Z" fill="#E3E6E8"/>
</svg>
